<?xml version="1.0" encoding="UTF-8" standalone="no"?>
<svg
   viewBox="0 0 241.68456 55.729595"
   id="vector"
   version="1.1"
   width="241.68456"
   height="55.729595"
   sodipodi:docname="logo_and_name.svg"
   inkscape:version="1.1 (c68e22c387, 2021-05-23)"
   xmlns:inkscape="http://www.inkscape.org/namespaces/inkscape"
   xmlns:sodipodi="http://sodipodi.sourceforge.net/DTD/sodipodi-0.dtd"
   xmlns:xlink="http://www.w3.org/1999/xlink"
   xmlns="http://www.w3.org/2000/svg"
   xmlns:svg="http://www.w3.org/2000/svg">
  <sodipodi:namedview
     id="namedview19"
     pagecolor="#505050"
     bordercolor="#ffffff"
     borderopacity="1"
     inkscape:pageshadow="0"
     inkscape:pageopacity="0"
     inkscape:pagecheckerboard="1"
     showgrid="false"
     inkscape:zoom="4.5596625"
     inkscape:cx="120.95193"
     inkscape:cy="27.962596"
     inkscape:window-width="1920"
     inkscape:window-height="1017"
     inkscape:window-x="-8"
     inkscape:window-y="-8"
     inkscape:window-maximized="1"
     inkscape:current-layer="vector" />
  <defs
     id="defs9">
    <linearGradient
       xlink:href="#linearGradient1034"
       id="linearGradient2190"
       x1="83.548119"
       y1="99.200546"
       x2="83.548119"
       y2="151.49106"
       gradientUnits="userSpaceOnUse" />
    <linearGradient
       id="linearGradient1034">
      <stop
         style="stop-color:#00d2ff;stop-opacity:1"
         offset="0"
         id="stop1030" />
      <stop
         style="stop-color:#3a47d5;stop-opacity:1"
         offset="1"
         id="stop1032" />
    </linearGradient>
  </defs>
  <path
     id="path"
     d="m 84.267553,27.0273 -13.549,-17.1460008 q -0.713,-0.899 -0.713,-1.891 0,-1.24 1.054,-2.046 0.961,-0.713 1.984,-0.713 1.116,0 2.077,1.24 L 87.677553,22.8423 100.26555,6.4712992 q 0.93,-1.24 2.046,-1.24 0.93,0 1.891,0.651 1.147,0.775 1.147,2.108 0,0.992 -0.713,1.891 L 91.117553,27.0273 106.68255,45.5693 q 0.775,0.961 0.775,1.953 0,1.333 -1.24,2.263 -0.992,0.713 -1.922,0.713 -1.178,0 -2.201,-1.302 l -14.415997,-18.169 -14.418,18.169 q -1.023,1.302 -2.17,1.302 -0.961,0 -1.953,-0.713 -1.24,-0.93 -1.24,-2.263 0,-0.992 0.806,-1.953 z"
     fill="#ffffff"
     stroke="#00000000"
     stroke-width="0.264583"
     style="fill:#1a1a1a" />
  <path
     id="path_1"
     d="m 120.48255,29.2603 v 14.728 q 0,1.209 1.209,1.209 h 24.495 q 0.837,0 1.426,0.496 0.806,0.713 0.806,1.984 0,1.302 -0.899,2.015 -0.527,0.403 -1.333,0.403 h -25.89 q -5.333,0 -5.333,-5.271 v -33.92 q 0,-5.2710008 5.333,-5.2710008 h 24.96 q 0.806,0 1.364,0.496 0.837,0.682 0.837,1.953 0,1.302 -0.899,2.0460008 -0.527,0.403 -1.302,0.403 l -23.565,10e-4 q -1.209,0 -1.209,1.209 v 12.805 l 22.417,0.001 q 0.589,0 1.054,0.279 1.054,0.589 1.054,2.077 0,2.356 -2.108,2.356 z"
     fill="#ffffff"
     stroke="#00000000"
     stroke-width="0.264583"
     style="fill:#1a1a1a" />
  <path
     id="path_2"
     d="M 186.86555,41.0113 V 7.5252992 q 0,-0.992 0.682,-1.612 0.806,-0.713 1.984,-0.713 1.519,0 2.294,1.116 0.372,0.527 0.372,1.209 V 45.8793 q 0,4.558 -3.225,4.558 -2.17,0 -3.69,-2.387 l -23.813,-37.083 v 37.145 q 0,1.054 -0.713,1.705 -0.837,0.713 -2.015,0.713 -1.426,0 -2.201,-1.054 -0.403,-0.558 -0.403,-1.364 v -38.044 q 0,-3.4110008 2.698,-4.5580008 0.961,-0.403 2.263,-0.403 2.542,0 4,2.232 z"
     fill="#ffffff"
     stroke="#00000000"
     stroke-width="0.264583"
     style="fill:#1a1a1a" />
  <path
     id="path_3"
     d="m 209.28355,5.6332992 h 8.899 q 7.72,0 12.836,2.698 5.24,2.7600008 8.124,8.4030008 2.542,4.961 2.542,11.007 0,7.875 -3.721,13.426 -5.953,8.93 -19.782,8.93 h -8.899 q -5.643,0 -5.643,-5.519 v -33.424 q 0,-5.5190008 5.643,-5.5190008 z m -0.248,6.2940008 v 31.874 q 0,1.395 1.581,1.395 h 7.627 q 6.759,0 10.542,-2.325 7.193,-4.465 7.193,-15.193 0,-7.472 -4,-12.185 -3.008,-3.504 -7.596,-4.434 -2.698,-0.527 -6.139,-0.527 h -7.565 q -1.643,0 -1.643,1.395 z"
     fill="#ffffff"
     stroke="#00000000"
     stroke-width="0.264583"
     style="fill:#1a1a1a" />
  <g
     id="layer1"
     transform="matrix(1.0589714,0,0,1.0589714,-59.166306,-104.74922)">
    <rect
       style="fill:url(#linearGradient2190);fill-opacity:1;stroke:none;stroke-width:0.290513;stroke-linecap:round;stroke-linejoin:round;paint-order:markers fill stroke"
       id="rect912"
       width="52.626156"
       height="52.626156"
       x="55.871487"
       y="98.916"
       ry="6.6145835"
       rx="6.6145835" />
    <g
       id="g998"
       transform="translate(41.033484,31.68628)">
      <path
         style="fill:none;stroke:#ffffff;stroke-width:2.98205;stroke-linecap:round;stroke-linejoin:round;stroke-miterlimit:4;stroke-dasharray:none;stroke-opacity:1"
         d="m 44.521536,104.31054 h 11.01352"
         id="path1052-3" />
      <path
         style="fill:none;stroke:#ffffff;stroke-width:2.98205;stroke-linecap:round;stroke-linejoin:round;stroke-miterlimit:4;stroke-dasharray:none;stroke-opacity:1"
         d="m 44.521536,93.542798 h 11.01352"
         id="path2906" />
      <path
         style="fill:none;stroke:#ffffff;stroke-width:2.98205;stroke-linecap:round;stroke-linejoin:round;stroke-miterlimit:4;stroke-dasharray:none;stroke-opacity:1"
         d="M 44.521536,82.775063 H 55.535053"
         id="path2908" />
      <path
         style="fill:none;stroke:#ffffff;stroke-width:2.95228;stroke-linecap:round;stroke-linejoin:round;stroke-miterlimit:4;stroke-dasharray:none;stroke-opacity:1"
         d="M 26.75222,82.760182 37.534839,93.542801 26.75222,104.32542"
         id="path2429" />
    </g>
  </g>
</svg>
